<svg width="1000" height="1000" viewBox="0 0 1000 1000" xmlns="http://www.w3.org/2000/svg"><defs/><path fill="#c3b091" d="M 0 0 L 1000 0 L 1000 1000 L 0 1000 Z"/><path fill="#181612" transform="matrix(0.7547192752429761 0 0 0.7547192752429761 -63.67924831710206 27.453045118429902)" d="M 955.70432353867 551.44088528184 C 952.20432353867 524.44088528184 933.60432353867 518.44088528184 933.60432353867 518.44088528184 L 933.90432353867 517.34088528184 C 934.10432353867 516.74088528184 933.30432353867 516.04088528184 932.10432353867 515.74088528184 L 927.40432353867 514.54088528184 L 921.60432353867 511.64088528184 C 920.60432353867 511.14088528184 919.20432353867 511.34088528184 918.60432353867 512.14088528184 C 918.00432353867 512.94088528184 917.50432353867 513.64088528184 917.50432353867 513.64088528184 L 901.50432353867 513.64088528184 C 900.60432353867 511.44088528184 895.50432353867 508.84088528184 891.10432353867 508.84088528184 C 888.60432353867 508.84088528184 885.90432353867 508.84088528184 884.10432353867 508.84088528184 C 882.90432353867 508.84088528184 882.00432353867 509.54088528184 882.00432353867 510.54088528184 C 882.00432353867 511.44088528184 882.00432353867 512.24088528184 882.00432353867 512.24088528184 C 882.00432353867 512.24088528184 876.60432353867 512.24088528184 874.20432353867 512.24088528184 C 864.60432353867 512.24088528184 861.70432353867 520.84088528184 861.70432353867 520.84088528184 L 905.10432353867 520.84088528184 L 860.40432353867 523.14088528184 C 859.90432353867 524.04088528184 859.20432353867 525.24088528184 858.50432353867 526.64088528184 C 863.30432353867 527.94088528184 864.70432353867 529.84088528184 864.70432353867 529.84088528184 C 860.70432353867 533.34088528184 856.50432353867 539.64088528184 856.50432353867 539.64088528184 C 859.50432353867 532.94088528184 862.60432353867 529.94088528184 862.60432353867 529.94088528184 C 861.50432353867 529.14088528184 859.80432353867 528.54088528184 857.70432353867 528.04088528184 C 857.70432353867 528.04088528184 857.70432353867 528.04088528184 857.70432353867 528.04088528184 L 857.70432353867 528.04088528184 C 853.80432353867 527.14088528184 848.50432353867 526.74088528184 844.00432353867 527.14088528184 C 843.20432353867 527.24088528184 842.70432353867 527.94088528184 842.90432353867 528.64088528184 C 844.20432353867 534.04088528184 848.90432353867 554.04088528184 848.40432353867 564.84088528184 L 848.40432353867 564.84088528184 C 846.90432353867 576.44088528184 845.90432353867 591.04088528184 845.80432353867 609.34088528184 C 855.70432353867 612.24088528184 885.80432353867 618.74088528184 931.70432353867 608.74088528184 C 933.10432353867 606.94088528184 935.00432353867 605.14088528184 937.40432353867 603.24088528184 C 948.90432353867 594.04088528184 959.30432353867 578.44088528184 955.70432353867 551.44088528184 Z M 932.70432353867 589.64088528184 C 926.20432353867 594.84088528184 928.40432353867 592.84088528184 927.00432353867 578.54088528184 C 925.60432353867 564.24088528184 920.90432353867 541.84088528184 918.70432353867 536.04088528184 C 916.50432353867 530.24088528184 920.20432353867 528.64088528184 925.90432353867 530.34088528184 C 931.40432353867 531.94088528184 939.50432353867 537.94088528184 941.40432353867 552.54088528184 C 943.90432353867 571.64088528184 939.10432353867 584.44088528184 932.70432353867 589.64088528184 Z"/><path fill="#181612" transform="matrix(0.7547192752429761 0 0 0.7547192752429761 -63.67924831710206 27.453045118429902)" d="M 928.50432353867 616.84088528184 C 928.60432353867 615.24088528184 929.00432353867 613.64088528184 929.70432353867 612.04088528184 C 912.00432353867 615.74088528184 896.70432353867 616.94088528184 884.10432353867 616.94088528184 C 865.30432353867 616.94088528184 852.40432353867 614.14088528184 846.00432353867 612.24088528184 C 846.30432353867 615.34088528184 847.50432353867 618.24088528184 847.20432353867 621.74088528184 C 847.00432353867 623.64088528184 845.30432353867 627.14088528184 844.80432353867 629.04088528184 C 844.30432353867 630.94088528184 845.30432353867 632.84088528184 847.20432353867 633.44088528184 C 874.90432353867 643.74088528184 918.00432353867 638.34088528184 930.20432353867 632.74088528184 C 933.70432353867 631.14088528184 933.40432353867 629.44088528184 932.50432353867 627.74088528184 C 930.90432353867 625.04088528184 928.30432353867 620.54088528184 928.50432353867 616.84088528184 Z"/><path fill="#181612" transform="matrix(0.7547192752429761 0 0 0.7547192752429761 -63.67924831710206 27.453045118429902)" d="M 763.40432353867 647.34088528184 C 743.00432353867 647.34088528184 731.90432353867 644.54088528184 725.90432353867 641.94088528184 L 725.70432353867 641.94088528184 L 725.70432353867 646.54088528184 C 725.70432353867 646.54088528184 736.70432353867 652.74088528184 763.40432353867 652.74088528184 C 790.10432353867 652.74088528184 801.10432353867 646.54088528184 801.10432353867 646.54088528184 L 801.10432353867 641.94088528184 L 800.90432353867 641.94088528184 C 794.90432353867 644.54088528184 783.70432353867 647.34088528184 763.40432353867 647.34088528184 Z"/><path fill="#181612" transform="matrix(0.7547192752429761 0 0 0.7547192752429761 -63.67924831710206 27.453045118429902)" d="M 797.40432353867 466.44088528184 C 797.40432353867 465.54088528184 796.80432353867 465.24088528184 796.00432353867 465.24088528184 L 729.50432353867 465.24088528184 C 728.70432353867 465.24088528184 728.10432353867 465.84088528184 728.10432353867 466.64088528184 C 728.10432353867 478.14088528184 728.10432353867 522.24088528184 728.10432353867 529.34088528184 C 728.10432353867 537.54088528184 729.90432353867 548.14088528184 739.00432353867 548.14088528184 C 744.50432353867 548.14088528184 786.50432353867 548.14088528184 786.50432353867 548.14088528184 C 793.40432353867 548.14088528184 796.10432353867 541.94088528184 797.00432353867 535.34088528184 C 808.50432353867 531.44088528184 814.20432353867 526.84088528184 816.70432353867 524.34088528184 C 818.30432353867 522.74088528184 819.00432353867 520.04088528184 819.00432353867 518.24088528184 L 819.00432353867 482.64088528184 C 819.00432353867 475.84088528184 807.40432353867 470.84088528184 797.40432353867 467.84088528184 C 797.40432353867 467.64088528184 797.40432353867 466.64088528184 797.40432353867 466.44088528184 Z M 793.30432353867 529.34088528184 C 793.30432353867 536.04088528184 792.10432353867 544.04088528184 786.50432353867 544.04088528184 L 739.00432353867 544.04088528184 C 733.40432353867 544.04088528184 732.20432353867 536.04088528184 732.20432353867 529.34088528184 L 732.20432353867 469.34088528184 L 793.20432353867 469.34088528184 L 793.20432353867 529.34088528184 Z M 813.00432353867 518.34088528184 C 813.00432353867 518.94088528184 812.70432353867 519.94088528184 812.40432353867 520.24088528184 C 810.50432353867 522.14088528184 806.20432353867 525.64088528184 797.40432353867 528.94088528184 C 797.40432353867 522.54088528184 797.40432353867 494.74088528184 797.40432353867 474.14088528184 C 807.40432353867 477.44088528184 813.00432353867 481.14088528184 813.00432353867 482.64088528184 L 813.00432353867 518.34088528184 Z"/><path fill="#181612" transform="matrix(0.7547192752429761 0 0 0.7547192752429761 -63.67924831710206 27.453045118429902)" d="M 772.90432353867 448.54088528184 L 772.90432353867 449.34088528184 C 772.90432353867 450.94088528184 771.60432353867 452.24088528184 770.00432353867 452.24088528184 L 756.80432353867 452.24088528184 C 755.20432353867 452.24088528184 753.90432353867 450.94088528184 753.90432353867 449.34088528184 L 753.90432353867 448.54088528184 C 741.30432353867 449.24088528184 728.20432353867 450.94088528184 722.10432353867 452.64088528184 C 722.10432353867 452.64088528184 721.70432353867 457.54088528184 726.70432353867 462.44088528184 L 797.40432353867 462.44088528184 C 797.40432353867 455.94088528184 797.40432353867 451.74088528184 797.40432353867 451.74088528184 C 791.50432353867 450.14088528184 783.40432353867 448.94088528184 772.90432353867 448.54088528184 Z"/><path fill="#181612" transform="matrix(0.7547192752429761 0 0 0.7547192752429761 -63.67924831710206 27.453045118429902)" d="M 770.00432353867 453.54088528184 L 756.80432353867 453.54088528184 C 754.40432353867 453.54088528184 752.50432353867 451.64088528184 752.50432353867 449.24088528184 L 752.50432353867 445.94088528184 C 752.50432353867 443.54088528184 754.40432353867 441.64088528184 756.80432353867 441.64088528184 L 770.00432353867 441.64088528184 C 772.40432353867 441.64088528184 774.30432353867 443.54088528184 774.30432353867 445.94088528184 L 774.30432353867 449.24088528184 C 774.30432353867 451.64088528184 772.40432353867 453.54088528184 770.00432353867 453.54088528184 Z M 756.80432353867 444.44088528184 C 755.90432353867 444.44088528184 755.20432353867 445.14088528184 755.20432353867 446.04088528184 L 755.20432353867 449.34088528184 C 755.20432353867 450.24088528184 755.90432353867 450.94088528184 756.80432353867 450.94088528184 L 770.00432353867 450.94088528184 C 770.90432353867 450.94088528184 771.60432353867 450.24088528184 771.60432353867 449.34088528184 L 771.60432353867 446.04088528184 C 771.60432353867 445.14088528184 770.90432353867 444.44088528184 770.00432353867 444.44088528184 L 756.80432353867 444.44088528184 Z"/><path fill="#181612" transform="matrix(0.7547192752429761 0 0 0.7547192752429761 -63.67924831710206 27.453045118429902)" d="M 739.10432353867 550.94088528184 C 738.10432353867 550.94088528184 737.00432353867 550.84088528184 735.90432353867 550.54088528184 C 737.20432353867 555.14088528184 738.30432353867 563.04088528184 736.60432353867 568.74088528184 C 738.50432353867 570.04088528184 745.90432353867 574.14088528184 763.40432353867 574.14088528184 C 781.00432353867 574.14088528184 788.20432353867 570.14088528184 790.20432353867 568.74088528184 C 788.40432353867 563.04088528184 789.10432353867 555.04088528184 790.20432353867 550.44088528184 C 788.90432353867 550.84088528184 787.70432353867 550.94088528184 786.60432353867 550.94088528184 L 739.10432353867 550.94088528184 Z"/><path fill="#181612" transform="matrix(0.7547192752429761 0 0 0.7547192752429761 -63.67924831710206 27.453045118429902)" d="M 791.20432353867 571.34088528184 C 788.20432353867 573.24088528184 780.30432353867 576.84088528184 763.40432353867 576.84088528184 C 746.50432353867 576.84088528184 738.50432353867 573.14088528184 735.60432353867 571.34088528184 C 731.80432353867 578.94088528184 721.70432353867 589.84088528184 721.70432353867 636.04088528184 C 721.70432353867 636.04088528184 727.90432353867 644.54088528184 763.40432353867 644.54088528184 C 798.90432353867 644.54088528184 805.10432353867 636.04088528184 805.10432353867 636.04088528184 C 805.10432353867 589.84088528184 795.00432353867 578.94088528184 791.20432353867 571.34088528184 Z M 763.40432353867 630.24088528184 C 756.20432353867 630.24088528184 750.40432353867 624.44088528184 750.40432353867 617.24088528184 C 750.40432353867 610.04088528184 756.20432353867 604.24088528184 763.40432353867 604.24088528184 C 770.60432353867 604.24088528184 776.40432353867 610.04088528184 776.40432353867 617.24088528184 C 776.40432353867 624.44088528184 770.50432353867 630.24088528184 763.40432353867 630.24088528184 Z"/><path fill="#181612" transform="matrix(0.7547192752429761 0 0 0.7547192752429761 -63.67924831710206 27.453045118429902)" d="M 763.40432353867 611.14088528184 C 760.00432353867 611.14088528184 757.30432353867 613.84088528184 757.30432353867 617.24088528184 C 757.30432353867 620.64088528184 760.00432353867 623.34088528184 763.40432353867 623.34088528184 C 766.80432353867 623.34088528184 769.50432353867 620.64088528184 769.50432353867 617.24088528184 C 769.50432353867 613.84088528184 766.70432353867 611.14088528184 763.40432353867 611.14088528184 Z"/><path fill="#181612" transform="matrix(0.7547192752429761 0 0 0.7547192752429761 -63.67924831710206 27.453045118429902)" d="M 698.80432353867 623.94088528184 L 698.50432353867 623.94088528184 C 698.00432353867 620.84088528184 697.20432353867 618.14088528184 696.10432353867 615.64088528184 C 683.80432353867 615.54088528184 626.00432353867 614.64088528184 572.40432353867 605.34088528184 C 572.40432353867 605.34088528184 634.50432353867 613.04088528184 694.80432353867 612.84088528184 C 687.10432353867 598.54088528184 671.60432353867 595.04088528184 672.10432353867 593.14088528184 C 672.70432353867 590.74088528184 675.10432353867 587.04088528184 673.90432353867 584.94088528184 C 670.00432353867 578.24088528184 661.60432353867 561.04088528184 635.10432353867 553.64088528184 C 604.90432353867 545.24088528184 568.80432353867 548.34088528184 563.60432353867 550.94088528184 C 563.60432353867 550.94088528184 563.60432353867 550.94088528184 563.50432353867 550.94088528184 C 557.40432353867 550.54088528184 552.90432353867 550.04088528184 546.00432353867 551.04088528184 C 546.00432353867 551.04088528184 545.60432353867 552.54088528184 546.00432353867 554.14088528184 C 546.00432353867 554.14088528184 554.00432353867 554.24088528184 560.80432353867 555.44088528184 C 559.20432353867 561.84088528184 559.40432353867 572.94088528184 554.20432353867 579.74088528184 C 547.00432353867 588.94088528184 539.30432353867 610.24088528184 538.30432353867 612.54088528184 C 537.30432353867 614.94088528184 536.70432353867 615.34088528184 538.30432353867 616.24088528184 C 539.90432353867 617.14088528184 545.40432353867 617.84088528184 546.90432353867 617.84088528184 C 548.50432353867 617.94088528184 549.10432353867 617.64088528184 549.50432353867 616.14088528184 C 549.80432353867 614.54088528184 551.30432353867 611.84088528184 551.30432353867 611.84088528184 C 572.00432353867 611.64088528184 577.00432353867 622.54088528184 577.50432353867 623.74088528184 L 576.70432353867 623.74088528184 C 575.80432353867 623.74088528184 575.10432353867 624.44088528184 575.10432353867 625.34088528184 C 575.10432353867 626.24088528184 575.80432353867 626.94088528184 576.70432353867 626.94088528184 L 698.80432353867 626.94088528184 C 699.70432353867 626.94088528184 700.40432353867 626.24088528184 700.40432353867 625.34088528184 C 700.40432353867 624.44088528184 699.60432353867 623.94088528184 698.80432353867 623.94088528184 Z M 577.20432353867 564.24088528184 C 583.10432353867 564.14088528184 606.50432353867 563.84088528184 614.10432353867 564.84088528184 C 622.80432353867 565.94088528184 635.70432353867 570.04088528184 632.40432353867 580.04088528184 C 631.90432353867 581.54088528184 631.60432353867 582.54088528184 631.40432353867 583.74088528184 C 631.30432353867 584.44088528184 630.70432353867 585.04088528184 629.90432353867 584.94088528184 C 623.10432353867 584.04088528184 592.40432353867 580.24088528184 578.40432353867 580.44088528184 C 577.70432353867 580.44088528184 577.00432353867 579.84088528184 577.00432353867 579.14088528184 L 576.00432353867 565.54088528184 C 575.90432353867 564.94088528184 576.40432353867 564.24088528184 577.20432353867 564.24088528184 Z"/><path fill="#3b3835" transform="matrix(0.7547192752429761 0 0 0.7547192752429761 -63.67924831710206 27.453045118429902)" d="M 599.40432353867 536.54088528184 C 596.20432353867 517.84088528184 597.20432353867 498.24088528184 601.90432353867 479.44088528184 C 606.70432353867 460.64088528184 615.40432353867 442.74088528184 627.30432353867 427.14088528184 C 639.20432353867 411.54088528184 654.30432353867 398.24088528184 671.40432353867 388.44088528184 C 680.00432353867 383.54088528184 689.00432353867 379.44088528184 698.40432353867 376.24088528184 C 707.80432353867 373.14088528184 717.50432353867 370.94088528184 727.30432353867 369.64088528184 C 732.20432353867 369.04088528184 737.20432353867 368.64088528184 742.10432353867 368.54088528184 C 744.60432353867 368.44088528184 747.10432353867 368.44088528184 749.50432353867 368.54088528184 C 752.00432353867 368.54088528184 754.50432353867 368.74088528184 756.90432353867 368.84088528184 C 766.80432353867 369.54088528184 776.60432353867 371.14088528184 786.10432353867 373.84088528184 C 805.20432353867 379.04088528184 823.10432353867 388.14088528184 838.50432353867 400.34088528184 C 853.90432353867 412.44088528184 866.80432353867 427.64088528184 876.10432353867 444.64088528184 C 885.40432353867 461.64088528184 891.30432353867 480.34088528184 892.90432353867 499.24088528184 C 892.90432353867 499.34088528184 892.80432353867 499.34088528184 892.80432353867 499.44088528184 C 892.70432353867 499.44088528184 892.70432353867 499.44088528184 892.60432353867 499.34088528184 C 888.10432353867 480.94088528184 880.60432353867 463.54088528184 870.20432353867 448.24088528184 C 859.80432353867 432.84088528184 846.80432353867 419.54088528184 831.90432353867 409.04088528184 C 824.50432353867 403.74088528184 816.50432353867 399.24088528184 808.30432353867 395.44088528184 C 800.00432353867 391.74088528184 791.50432353867 388.64088528184 782.70432353867 386.54088528184 C 773.90432353867 384.44088528184 765.00432353867 382.94088528184 756.00432353867 382.54088528184 C 753.80432353867 382.44088528184 751.50432353867 382.34088528184 749.30432353867 382.34088528184 C 747.00432353867 382.34088528184 744.80432353867 382.34088528184 742.50432353867 382.44088528184 C 738.00432353867 382.54088528184 733.50432353867 382.94088528184 729.00432353867 383.54088528184 C 720.10432353867 384.64088528184 711.20432353867 386.64088528184 702.70432353867 389.44088528184 C 694.10432353867 392.14088528184 685.80432353867 395.74088528184 677.90432353867 400.04088528184 C 662.00432353867 408.64088528184 647.80432353867 420.24088528184 635.90432353867 434.14088528184 C 624.10432353867 447.94088528184 614.80432353867 464.14088528184 608.60432353867 481.54088528184 C 602.30432353867 498.94088528184 599.50432353867 517.64088528184 599.70432353867 536.64088528184 C 599.70432353867 536.74088528184 599.60432353867 536.74088528184 599.60432353867 536.74088528184 C 599.40432353867 536.64088528184 599.40432353867 536.54088528184 599.40432353867 536.54088528184 Z"/><path fill="#3b3835" transform="matrix(0.7547192752429761 0 0 0.7547192752429761 -63.67924831710206 27.453045118429902)" d="M 618.70432353867 522.94088528184 C 617.70432353867 510.34088528184 619.30432353867 497.54088528184 622.90432353867 485.24088528184 C 626.50432353867 472.94088528184 632.20432353867 461.34088528184 639.70432353867 450.84088528184 C 647.20432353867 440.44088528184 656.40432353867 431.24088528184 666.80432353867 423.84088528184 C 677.20432353867 416.44088528184 688.80432353867 410.84088528184 701.00432353867 407.64088528184 C 701.00432353867 407.64088528184 701.10432353867 407.64088528184 701.10432353867 407.64088528184 C 701.10432353867 407.64088528184 701.10432353867 407.74088528184 701.10432353867 407.74088528184 C 689.70432353867 413.14088528184 679.10432353867 419.64088528184 669.50432353867 427.44088528184 C 660.00432353867 435.24088528184 651.50432353867 444.24088528184 644.40432353867 454.14088528184 C 637.30432353867 464.14088528184 631.50432353867 475.04088528184 627.20432353867 486.54088528184 C 622.90432353867 498.14088528184 620.20432353867 510.24088528184 618.80432353867 522.74088528184 C 618.90432353867 522.94088528184 618.80432353867 522.94088528184 618.70432353867 522.94088528184 C 618.80432353867 522.94088528184 618.70432353867 522.94088528184 618.70432353867 522.94088528184 Z"/><path id="text" fill="#181612" transform="matrix(1.0521885521885523 0 0 1.0521885521885523 -59.34924715909089 430.11339436026947)" d="M 312.160212 181.20048 C 306.378962 183.38798 299.816462 184.48173 292.472712 184.48173 C 268.410212 184.48173 256.378962 172.841105 256.378962 149.559855 C 256.378962 127.528605 268.410212 116.51298 292.472712 116.51298 C 299.816462 116.51298 306.378962 117.60673 312.160212 119.79423 L 312.160212 131.04423 C 306.378962 128.54423 300.128962 127.29423 293.410212 127.29423 C 277.316462 127.29423 269.269587 134.716105 269.269587 149.559855 C 269.269587 165.653605 277.316462 173.70048 293.410212 173.70048 C 300.128962 173.70048 306.378962 172.45048 312.160212 169.95048 L 312.160212 181.20048 Z M 355.191462 173.70048 C 368.691462 173.70048 375.441462 165.903605 375.441462 150.309855 C 375.441462 134.966105 368.691462 127.29423 355.191462 127.29423 C 341.347712 127.29423 334.425837 134.966105 334.425837 150.309855 C 334.425837 165.903605 341.347712 173.70048 355.191462 173.70048 Z M 321.535212 150.591105 C 321.535212 127.872355 332.753962 116.51298 355.191462 116.51298 C 377.285212 116.51298 388.332087 127.872355 388.332087 150.591105 C 388.332087 173.184855 377.285212 184.48173 355.191462 184.48173 C 333.753962 184.48173 322.535212 173.184855 321.535212 150.591105 Z M 400.050837 184.01298 L 400.050837 116.98173 L 412.941462 116.98173 L 435.675837 167.841105 L 457.941462 116.98173 L 470.363337 116.98173 L 470.363337 184.01298 L 458.878962 184.01298 L 458.878962 137.32548 L 440.691462 184.01298 L 430.097712 184.01298 L 411.535212 137.32548 L 411.535212 184.01298 L 400.050837 184.01298 Z M 484.425837 184.01298 L 484.425837 116.98173 L 514.425837 116.98173 C 528.113337 116.98173 534.957087 123.278605 534.957087 135.872355 C 534.957087 149.528605 525.597712 157.79423 506.878962 160.66923 L 505.097712 149.60673 C 516.347712 147.57548 521.972712 143.122355 521.972712 136.247355 C 521.972712 130.684855 519.191462 127.903605 513.628962 127.903605 L 496.847712 127.903605 L 496.847712 184.01298 L 484.425837 184.01298 Z M 550.050837 184.01298 L 537.300837 184.01298 L 565.753962 116.98173 L 579.113337 116.98173 L 608.175837 184.01298 L 594.816462 184.01298 L 587.175837 165.73173 L 564.910212 165.73173 L 569.175837 154.95048 L 582.675837 154.95048 L 572.128962 129.778605 L 550.050837 184.01298 Z M 616.378962 183.91923 L 616.378962 116.98173 L 646.847712 116.98173 C 660.535212 116.98173 667.378962 122.966105 667.378962 134.934855 C 667.378962 143.028605 662.050837 149.73173 651.394587 155.04423 L 672.628962 184.01298 L 656.972712 184.01298 L 636.582087 154.809855 L 636.582087 149.13798 C 648.457087 147.10673 654.394587 142.497355 654.394587 135.309855 C 654.394587 130.372355 651.613337 127.903605 646.050837 127.903605 L 629.035212 127.903605 L 629.035212 183.91923 L 616.378962 183.91923 Z M 724.378962 116.98173 L 724.378962 127.66923 L 690.816462 127.66923 L 690.816462 144.54423 L 722.785212 144.54423 L 722.785212 155.653605 L 690.675837 155.653605 L 690.675837 173.23173 L 725.035212 173.23173 L 725.035212 184.01298 L 678.488337 184.01298 L 678.488337 116.98173 L 724.378962 116.98173 Z M 748.941462 116.98173 L 748.941462 184.01298 L 736.519587 184.01298 L 736.519587 116.98173 L 748.941462 116.98173 Z M 806.832087 116.98173 L 806.832087 127.76298 L 787.613337 127.76298 L 787.613337 184.01298 L 775.191462 184.01298 L 775.191462 127.76298 L 755.972712 127.76298 L 755.972712 116.98173 L 806.832087 116.98173 Z"/><path id="text" fill="#2c2b2a" transform="matrix(0.5260942760942762 0 0 0.5260942760942762 -57.649436553030284 500.2362373737375)" d="M 394.700049 300.82596 L 424.556049 300.82596 L 424.556049 307.44996 L 401.900049 307.44996 L 401.900049 331.16196 L 423.020049 331.16196 L 423.020049 337.78596 L 401.900049 337.78596 L 401.900049 368.02596 L 394.700049 368.02596 L 394.700049 300.82596 Z M 434.348049 301.49796 C 436.460049 300.98596 438.780049 300.61796 441.308049 300.39396 C 443.836049 300.16996 446.156049 300.05796 448.268049 300.05796 C 450.764049 300.05796 453.132049 300.36196 455.372049 300.96996 C 457.612049 301.57796 459.564049 302.60196 461.228049 304.04196 C 462.892049 305.48196 464.220049 307.36996 465.212049 309.70596 C 466.204049 312.04196 466.700049 314.96996 466.700049 318.48996 C 466.700049 323.80196 465.596049 328.05796 463.388049 331.25796 C 461.180049 334.45796 458.252049 336.60196 454.604049 337.68996 L 458.252049 341.24196 L 471.500049 368.02596 L 463.148049 368.02596 L 448.748049 338.74596 L 441.548049 337.30596 L 441.548049 368.02596 L 434.348049 368.02596 L 434.348049 301.49796 Z M 441.548049 332.50596 L 447.308049 332.50596 C 450.956049 332.50596 453.836049 331.38596 455.948049 329.14596 C 458.060049 326.90596 459.116049 323.48196 459.116049 318.87396 C 459.116049 315.35396 458.236049 312.44196 456.476049 310.13796 C 454.716049 307.83396 452.108049 306.68196 448.652049 306.68196 C 447.372049 306.68196 446.044049 306.72996 444.668049 306.82596 C 443.292049 306.92196 442.252049 307.06596 441.548049 307.25796 L 441.548049 332.50596 Z M 475.724049 334.42596 C 475.724049 323.03396 477.548049 314.39396 481.196049 308.50596 C 484.844049 302.61796 490.412049 299.67396 497.900049 299.67396 C 501.932049 299.67396 505.356049 300.48996 508.172049 302.12196 C 510.988049 303.75396 513.276049 306.07396 515.036049 309.08196 C 516.796049 312.08996 518.092049 315.73796 518.924049 320.02596 C 519.756049 324.31396 520.172049 329.11396 520.172049 334.42596 C 520.172049 345.81796 518.332049 354.45796 514.652049 360.34596 C 510.972049 366.23396 505.388049 369.17796 497.900049 369.17796 C 493.932049 369.17796 490.540049 368.36196 487.724049 366.72996 C 484.908049 365.09796 482.604049 362.77796 480.812049 359.76996 C 479.020049 356.76196 477.724049 353.11396 476.924049 348.82596 C 476.124049 344.53796 475.724049 339.73796 475.724049 334.42596 Z M 483.308049 334.42596 C 483.308049 338.20196 483.580049 341.78596 484.124049 345.17796 C 484.668049 348.56996 485.516049 351.54596 486.668049 354.10596 C 487.820049 356.66596 489.324049 358.71396 491.180049 360.24996 C 493.036049 361.78596 495.276049 362.55396 497.900049 362.55396 C 502.700049 362.55396 506.348049 360.24996 508.844049 355.64196 C 511.340049 351.03396 512.588049 343.96196 512.588049 334.42596 C 512.588049 330.71396 512.316049 327.16196 511.772049 323.76996 C 511.228049 320.37796 510.380049 317.38596 509.228049 314.79396 C 508.076049 312.20196 506.572049 310.13796 504.716049 308.60196 C 502.860049 307.06596 500.588049 306.29796 497.900049 306.29796 C 493.164049 306.29796 489.548049 308.60196 487.052049 313.20996 C 484.556049 317.81796 483.308049 324.88996 483.308049 334.42596 Z M 572.108049 323.86596 L 572.972049 313.68996 L 572.588049 313.68996 L 569.516049 323.19396 L 555.980049 352.37796 L 553.580049 352.37796 L 539.372049 323.19396 L 536.396049 313.68996 L 536.012049 313.68996 L 537.356049 323.86596 L 537.356049 368.02596 L 530.444049 368.02596 L 530.444049 300.82596 L 536.492049 300.82596 L 552.716049 333.84996 L 555.116049 341.72196 L 555.308049 341.72196 L 557.612049 333.75396 L 572.972049 300.82596 L 579.308049 300.82596 L 579.308049 368.02596 L 572.108049 368.02596 L 572.108049 323.86596 Z M 622.604049 336.92196 L 619.148049 336.92196 L 619.148049 368.02596 L 611.948049 368.02596 L 611.948049 300.82596 L 619.148049 300.82596 L 619.148049 332.12196 L 622.508049 330.77796 L 639.980049 300.82596 L 648.236049 300.82596 L 630.668049 329.81796 L 627.308049 332.88996 L 631.244049 336.72996 L 650.732049 368.02596 L 641.612049 368.02596 L 622.604049 336.92196 Z M 660.716049 300.82596 L 667.916049 300.82596 L 667.916049 368.02596 L 660.716049 368.02596 L 660.716049 300.82596 Z M 717.068049 307.44996 L 700.556049 307.44996 L 700.556049 368.02596 L 693.356049 368.02596 L 693.356049 307.44996 L 676.844049 307.44996 L 676.844049 300.82596 L 717.068049 300.82596 L 717.068049 307.44996 Z M 756.140049 365.43396 C 754.540049 366.77796 752.524049 367.73796 750.092049 368.31396 C 747.660049 368.88996 745.100049 369.17796 742.412049 369.17796 C 739.020049 369.17796 735.884049 368.53796 733.004049 367.25796 C 730.124049 365.97796 727.644049 363.94596 725.564049 361.16196 C 723.484049 358.37796 721.868049 354.77796 720.716049 350.36196 C 719.564049 345.94596 718.988049 340.63396 718.988049 334.42596 C 718.988049 328.02596 719.644049 322.61796 720.956049 318.20196 C 722.268049 313.78596 724.012049 310.20196 726.188049 307.44996 C 728.364049 304.69796 730.876049 302.71396 733.724049 301.49796 C 736.572049 300.28196 739.500049 299.67396 742.508049 299.67396 C 745.580049 299.67396 748.124049 299.89796 750.140049 300.34596 C 752.156049 300.79396 753.900049 301.33796 755.372049 301.97796 L 753.644049 308.50596 C 752.364049 307.80196 750.860049 307.25796 749.132049 306.87396 C 747.404049 306.48996 745.420049 306.29796 743.180049 306.29796 C 740.940049 306.29796 738.828049 306.79396 736.844049 307.78596 C 734.860049 308.77796 733.100049 310.37796 731.564049 312.58596 C 730.028049 314.79396 728.812049 317.68996 727.916049 321.27396 C 727.020049 324.85796 726.572049 329.24196 726.572049 334.42596 C 726.572049 343.76996 728.172049 350.79396 731.372049 355.49796 C 734.572049 360.20196 738.828049 362.55396 744.140049 362.55396 C 746.316049 362.55396 748.268049 362.24996 749.996049 361.64196 C 751.724049 361.03396 753.196049 360.31396 754.412049 359.48196 L 756.140049 365.43396 Z M 796.940049 337.01796 L 772.172049 337.01796 L 772.172049 368.02596 L 764.972049 368.02596 L 764.972049 300.82596 L 772.172049 300.82596 L 772.172049 330.39396 L 796.940049 330.39396 L 796.940049 300.82596 L 804.140049 300.82596 L 804.140049 368.02596 L 796.940049 368.02596 L 796.940049 337.01796 Z M 816.428049 300.82596 L 846.284049 300.82596 L 846.284049 307.44996 L 823.628049 307.44996 L 823.628049 330.20196 L 844.460049 330.20196 L 844.460049 336.82596 L 823.628049 336.82596 L 823.628049 361.40196 L 846.764049 361.40196 L 846.764049 368.02596 L 816.428049 368.02596 L 816.428049 300.82596 Z M 867.884049 325.40196 L 863.756049 314.84196 L 863.468049 314.84196 L 864.524049 325.40196 L 864.524049 368.02596 L 857.612049 368.02596 L 857.612049 299.76996 L 861.932049 299.76996 L 886.796049 343.35396 L 890.732049 353.43396 L 891.116049 353.43396 L 890.060049 343.35396 L 890.060049 300.82596 L 896.972049 300.82596 L 896.972049 369.08196 L 892.556049 369.08196 L 867.884049 325.40196 Z M 962.540049 307.44996 L 946.028049 307.44996 L 946.028049 368.02596 L 938.828049 368.02596 L 938.828049 307.44996 L 922.316049 307.44996 L 922.316049 300.82596 L 962.540049 300.82596 L 962.540049 307.44996 Z M 964.460049 334.42596 C 964.460049 323.03396 966.284049 314.39396 969.932049 308.50596 C 973.580049 302.61796 979.148049 299.67396 986.636049 299.67396 C 990.668049 299.67396 994.092049 300.48996 996.908049 302.12196 C 999.724049 303.75396 1002.012049 306.07396 1003.772049 309.08196 C 1005.532049 312.08996 1006.828049 315.73796 1007.660049 320.02596 C 1008.492049 324.31396 1008.908049 329.11396 1008.908049 334.42596 C 1008.908049 345.81796 1007.068049 354.45796 1003.388049 360.34596 C 999.708049 366.23396 994.124049 369.17796 986.636049 369.17796 C 982.668049 369.17796 979.276049 368.36196 976.460049 366.72996 C 973.644049 365.09796 971.340049 362.77796 969.548049 359.76996 C 967.756049 356.76196 966.460049 353.11396 965.660049 348.82596 C 964.860049 344.53796 964.460049 339.73796 964.460049 334.42596 Z M 972.044049 334.42596 C 972.044049 338.20196 972.316049 341.78596 972.860049 345.17796 C 973.404049 348.56996 974.252049 351.54596 975.404049 354.10596 C 976.556049 356.66596 978.060049 358.71396 979.916049 360.24996 C 981.772049 361.78596 984.012049 362.55396 986.636049 362.55396 C 991.436049 362.55396 995.084049 360.24996 997.580049 355.64196 C 1000.076049 351.03396 1001.324049 343.96196 1001.324049 334.42596 C 1001.324049 330.71396 1001.052049 327.16196 1000.508049 323.76996 C 999.964049 320.37796 999.116049 317.38596 997.964049 314.79396 C 996.812049 312.20196 995.308049 310.13796 993.452049 308.60196 C 991.596049 307.06596 989.324049 306.29796 986.636049 306.29796 C 981.900049 306.29796 978.284049 308.60196 975.788049 313.20996 C 973.292049 317.81796 972.044049 324.88996 972.044049 334.42596 Z M 1074.668049 365.43396 C 1073.068049 366.77796 1071.052049 367.73796 1068.620049 368.31396 C 1066.188049 368.88996 1063.628049 369.17796 1060.940049 369.17796 C 1057.548049 369.17796 1054.412049 368.53796 1051.532049 367.25796 C 1048.652049 365.97796 1046.172049 363.94596 1044.092049 361.16196 C 1042.012049 358.37796 1040.396049 354.77796 1039.244049 350.36196 C 1038.092049 345.94596 1037.516049 340.63396 1037.516049 334.42596 C 1037.516049 328.02596 1038.172049 322.61796 1039.484049 318.20196 C 1040.796049 313.78596 1042.540049 310.20196 1044.716049 307.44996 C 1046.892049 304.69796 1049.404049 302.71396 1052.252049 301.49796 C 1055.100049 300.28196 1058.028049 299.67396 1061.036049 299.67396 C 1064.108049 299.67396 1066.652049 299.89796 1068.668049 300.34596 C 1070.684049 300.79396 1072.428049 301.33796 1073.900049 301.97796 L 1072.172049 308.50596 C 1070.892049 307.80196 1069.388049 307.25796 1067.660049 306.87396 C 1065.932049 306.48996 1063.948049 306.29796 1061.708049 306.29796 C 1059.468049 306.29796 1057.356049 306.79396 1055.372049 307.78596 C 1053.388049 308.77796 1051.628049 310.37796 1050.092049 312.58596 C 1048.556049 314.79396 1047.340049 317.68996 1046.444049 321.27396 C 1045.548049 324.85796 1045.100049 329.24196 1045.100049 334.42596 C 1045.100049 343.76996 1046.700049 350.79396 1049.900049 355.49796 C 1053.100049 360.20196 1057.356049 362.55396 1062.668049 362.55396 C 1064.844049 362.55396 1066.796049 362.24996 1068.524049 361.64196 C 1070.252049 361.03396 1071.724049 360.31396 1072.940049 359.48196 L 1074.668049 365.43396 Z M 1079.372049 334.42596 C 1079.372049 323.03396 1081.196049 314.39396 1084.844049 308.50596 C 1088.492049 302.61796 1094.060049 299.67396 1101.548049 299.67396 C 1105.580049 299.67396 1109.004049 300.48996 1111.820049 302.12196 C 1114.636049 303.75396 1116.924049 306.07396 1118.684049 309.08196 C 1120.444049 312.08996 1121.740049 315.73796 1122.572049 320.02596 C 1123.404049 324.31396 1123.820049 329.11396 1123.820049 334.42596 C 1123.820049 345.81796 1121.980049 354.45796 1118.300049 360.34596 C 1114.620049 366.23396 1109.036049 369.17796 1101.548049 369.17796 C 1097.580049 369.17796 1094.188049 368.36196 1091.372049 366.72996 C 1088.556049 365.09796 1086.252049 362.77796 1084.460049 359.76996 C 1082.668049 356.76196 1081.372049 353.11396 1080.572049 348.82596 C 1079.772049 344.53796 1079.372049 339.73796 1079.372049 334.42596 Z M 1086.956049 334.42596 C 1086.956049 338.20196 1087.228049 341.78596 1087.772049 345.17796 C 1088.316049 348.56996 1089.164049 351.54596 1090.316049 354.10596 C 1091.468049 356.66596 1092.972049 358.71396 1094.828049 360.24996 C 1096.684049 361.78596 1098.924049 362.55396 1101.548049 362.55396 C 1106.348049 362.55396 1109.996049 360.24996 1112.492049 355.64196 C 1114.988049 351.03396 1116.236049 343.96196 1116.236049 334.42596 C 1116.236049 330.71396 1115.964049 327.16196 1115.420049 323.76996 C 1114.876049 320.37796 1114.028049 317.38596 1112.876049 314.79396 C 1111.724049 312.20196 1110.220049 310.13796 1108.364049 308.60196 C 1106.508049 307.06596 1104.236049 306.29796 1101.548049 306.29796 C 1096.812049 306.29796 1093.196049 308.60196 1090.700049 313.20996 C 1088.204049 317.81796 1086.956049 324.88996 1086.956049 334.42596 Z M 1164.908049 300.82596 L 1171.820049 300.82596 L 1171.820049 345.84996 C 1171.820049 353.97796 1170.236049 359.84996 1167.068049 363.46596 C 1163.900049 367.08196 1159.404049 368.88996 1153.580049 368.88996 C 1146.796049 368.88996 1141.852049 367.12996 1138.748049 363.60996 C 1135.644049 360.08996 1134.092049 354.68196 1134.092049 347.38596 L 1134.092049 300.82596 L 1141.292049 300.82596 L 1141.292049 343.64196 C 1141.292049 347.09796 1141.516049 350.00996 1141.964049 352.37796 C 1142.412049 354.74596 1143.148049 356.66596 1144.172049 358.13796 C 1145.196049 359.60996 1146.476049 360.66596 1148.012049 361.30596 C 1149.548049 361.94596 1151.436049 362.26596 1153.676049 362.26596 C 1157.900049 362.26596 1160.828049 360.79396 1162.460049 357.84996 C 1164.092049 354.90596 1164.908049 350.16996 1164.908049 343.64196 L 1164.908049 300.82596 Z M 1219.244049 365.43396 C 1217.644049 366.77796 1215.628049 367.73796 1213.196049 368.31396 C 1210.764049 368.88996 1208.204049 369.17796 1205.516049 369.17796 C 1202.124049 369.17796 1198.988049 368.53796 1196.108049 367.25796 C 1193.228049 365.97796 1190.748049 363.94596 1188.668049 361.16196 C 1186.588049 358.37796 1184.972049 354.77796 1183.820049 350.36196 C 1182.668049 345.94596 1182.092049 340.63396 1182.092049 334.42596 C 1182.092049 328.02596 1182.748049 322.61796 1184.060049 318.20196 C 1185.372049 313.78596 1187.116049 310.20196 1189.292049 307.44996 C 1191.468049 304.69796 1193.980049 302.71396 1196.828049 301.49796 C 1199.676049 300.28196 1202.604049 299.67396 1205.612049 299.67396 C 1208.684049 299.67396 1211.228049 299.89796 1213.244049 300.34596 C 1215.260049 300.79396 1217.004049 301.33796 1218.476049 301.97796 L 1216.748049 308.50596 C 1215.468049 307.80196 1213.964049 307.25796 1212.236049 306.87396 C 1210.508049 306.48996 1208.524049 306.29796 1206.284049 306.29796 C 1204.044049 306.29796 1201.932049 306.79396 1199.948049 307.78596 C 1197.964049 308.77796 1196.204049 310.37796 1194.668049 312.58596 C 1193.132049 314.79396 1191.916049 317.68996 1191.020049 321.27396 C 1190.124049 324.85796 1189.676049 329.24196 1189.676049 334.42596 C 1189.676049 343.76996 1191.276049 350.79396 1194.476049 355.49796 C 1197.676049 360.20196 1201.932049 362.55396 1207.244049 362.55396 C 1209.420049 362.55396 1211.372049 362.24996 1213.100049 361.64196 C 1214.828049 361.03396 1216.300049 360.31396 1217.516049 359.48196 L 1219.244049 365.43396 Z M 1260.044049 337.01796 L 1235.276049 337.01796 L 1235.276049 368.02596 L 1228.076049 368.02596 L 1228.076049 300.82596 L 1235.276049 300.82596 L 1235.276049 330.39396 L 1260.044049 330.39396 L 1260.044049 300.82596 L 1267.244049 300.82596 L 1267.244049 368.02596 L 1260.044049 368.02596 L 1260.044049 337.01796 Z M 1297.100049 337.30596 L 1316.012049 337.30596 L 1316.012049 343.92996 L 1297.100049 343.92996 L 1297.100049 337.30596 Z M 1376.012049 365.43396 C 1374.412049 366.77796 1372.396049 367.73796 1369.964049 368.31396 C 1367.532049 368.88996 1364.972049 369.17796 1362.284049 369.17796 C 1358.892049 369.17796 1355.756049 368.53796 1352.876049 367.25796 C 1349.996049 365.97796 1347.516049 363.94596 1345.436049 361.16196 C 1343.356049 358.37796 1341.740049 354.77796 1340.588049 350.36196 C 1339.436049 345.94596 1338.860049 340.63396 1338.860049 334.42596 C 1338.860049 328.02596 1339.516049 322.61796 1340.828049 318.20196 C 1342.140049 313.78596 1343.884049 310.20196 1346.060049 307.44996 C 1348.236049 304.69796 1350.748049 302.71396 1353.596049 301.49796 C 1356.444049 300.28196 1359.372049 299.67396 1362.380049 299.67396 C 1365.452049 299.67396 1367.996049 299.89796 1370.012049 300.34596 C 1372.028049 300.79396 1373.772049 301.33796 1375.244049 301.97796 L 1373.516049 308.50596 C 1372.236049 307.80196 1370.732049 307.25796 1369.004049 306.87396 C 1367.276049 306.48996 1365.292049 306.29796 1363.052049 306.29796 C 1360.812049 306.29796 1358.700049 306.79396 1356.716049 307.78596 C 1354.732049 308.77796 1352.972049 310.37796 1351.436049 312.58596 C 1349.900049 314.79396 1348.684049 317.68996 1347.788049 321.27396 C 1346.892049 324.85796 1346.444049 329.24196 1346.444049 334.42596 C 1346.444049 343.76996 1348.044049 350.79396 1351.244049 355.49796 C 1354.444049 360.20196 1358.700049 362.55396 1364.012049 362.55396 C 1366.188049 362.55396 1368.140049 362.24996 1369.868049 361.64196 C 1371.596049 361.03396 1373.068049 360.31396 1374.284049 359.48196 L 1376.012049 365.43396 Z M 1380.716049 334.42596 C 1380.716049 323.03396 1382.540049 314.39396 1386.188049 308.50596 C 1389.836049 302.61796 1395.404049 299.67396 1402.892049 299.67396 C 1406.924049 299.67396 1410.348049 300.48996 1413.164049 302.12196 C 1415.980049 303.75396 1418.268049 306.07396 1420.028049 309.08196 C 1421.788049 312.08996 1423.084049 315.73796 1423.916049 320.02596 C 1424.748049 324.31396 1425.164049 329.11396 1425.164049 334.42596 C 1425.164049 345.81796 1423.324049 354.45796 1419.644049 360.34596 C 1415.964049 366.23396 1410.380049 369.17796 1402.892049 369.17796 C 1398.924049 369.17796 1395.532049 368.36196 1392.716049 366.72996 C 1389.900049 365.09796 1387.596049 362.77796 1385.804049 359.76996 C 1384.012049 356.76196 1382.716049 353.11396 1381.916049 348.82596 C 1381.116049 344.53796 1380.716049 339.73796 1380.716049 334.42596 Z M 1388.300049 334.42596 C 1388.300049 338.20196 1388.572049 341.78596 1389.116049 345.17796 C 1389.660049 348.56996 1390.508049 351.54596 1391.660049 354.10596 C 1392.812049 356.66596 1394.316049 358.71396 1396.172049 360.24996 C 1398.028049 361.78596 1400.268049 362.55396 1402.892049 362.55396 C 1407.692049 362.55396 1411.340049 360.24996 1413.836049 355.64196 C 1416.332049 351.03396 1417.580049 343.96196 1417.580049 334.42596 C 1417.580049 330.71396 1417.308049 327.16196 1416.764049 323.76996 C 1416.220049 320.37796 1415.372049 317.38596 1414.220049 314.79396 C 1413.068049 312.20196 1411.564049 310.13796 1409.708049 308.60196 C 1407.852049 307.06596 1405.580049 306.29796 1402.892049 306.29796 C 1398.156049 306.29796 1394.540049 308.60196 1392.044049 313.20996 C 1389.548049 317.81796 1388.300049 324.88996 1388.300049 334.42596 Z M 1477.100049 323.86596 L 1477.964049 313.68996 L 1477.580049 313.68996 L 1474.508049 323.19396 L 1460.972049 352.37796 L 1458.572049 352.37796 L 1444.364049 323.19396 L 1441.388049 313.68996 L 1441.004049 313.68996 L 1442.348049 323.86596 L 1442.348049 368.02596 L 1435.436049 368.02596 L 1435.436049 300.82596 L 1441.484049 300.82596 L 1457.708049 333.84996 L 1460.108049 341.72196 L 1460.300049 341.72196 L 1462.604049 333.75396 L 1477.964049 300.82596 L 1484.300049 300.82596 L 1484.300049 368.02596 L 1477.100049 368.02596 L 1477.100049 323.86596 Z M 1496.588049 301.49796 C 1498.636049 300.92196 1500.812049 300.53796 1503.116049 300.34596 C 1505.420049 300.15396 1507.692049 300.05796 1509.932049 300.05796 C 1512.492049 300.05796 1515.020049 300.34596 1517.516049 300.92196 C 1520.012049 301.49796 1522.268049 302.55396 1524.284049 304.08996 C 1526.300049 305.62596 1527.932049 307.73796 1529.180049 310.42596 C 1530.428049 313.11396 1531.052049 316.53796 1531.052049 320.69796 C 1531.052049 324.72996 1530.460049 328.15396 1529.276049 330.96996 C 1528.092049 333.78596 1526.524049 336.07396 1524.572049 337.83396 C 1522.620049 339.59396 1520.380049 340.87396 1517.852049 341.67396 C 1515.324049 342.47396 1512.716049 342.87396 1510.028049 342.87396 C 1509.772049 342.87396 1509.356049 342.87396 1508.780049 342.87396 C 1508.204049 342.87396 1507.596049 342.85796 1506.956049 342.82596 C 1506.316049 342.79396 1505.692049 342.74596 1505.084049 342.68196 C 1504.476049 342.61796 1504.044049 342.55396 1503.788049 342.48996 L 1503.788049 368.02596 L 1496.588049 368.02596 L 1496.588049 301.49796 Z M 1510.316049 306.68196 C 1509.036049 306.68196 1507.804049 306.72996 1506.620049 306.82596 C 1505.436049 306.92196 1504.492049 307.06596 1503.788049 307.25796 L 1503.788049 335.86596 C 1504.044049 335.99396 1504.444049 336.07396 1504.988049 336.10596 C 1505.532049 336.13796 1506.092049 336.16996 1506.668049 336.20196 C 1507.244049 336.23396 1507.804049 336.24996 1508.348049 336.24996 C 1508.892049 336.24996 1509.292049 336.24996 1509.548049 336.24996 C 1511.340049 336.24996 1513.068049 336.02596 1514.732049 335.57796 C 1516.396049 335.12996 1517.868049 334.31396 1519.148049 333.12996 C 1520.428049 331.94596 1521.468049 330.34596 1522.268049 328.32996 C 1523.068049 326.31396 1523.468049 323.76996 1523.468049 320.69796 C 1523.468049 318.00996 1523.100049 315.76996 1522.364049 313.97796 C 1521.628049 312.18596 1520.668049 310.74596 1519.484049 309.65796 C 1518.300049 308.56996 1516.908049 307.80196 1515.308049 307.35396 C 1513.708049 306.90596 1512.044049 306.68196 1510.316049 306.68196 Z M 1560.620049 349.20996 L 1541.612049 349.20996 L 1536.236049 368.02596 L 1529.132049 368.02596 L 1549.388049 299.76996 L 1553.324049 299.76996 L 1573.580049 368.02596 L 1566.092049 368.02596 L 1560.620049 349.20996 Z M 1543.532049 342.77796 L 1558.892049 342.77796 L 1553.036049 322.04196 L 1551.212049 311.96196 L 1551.020049 311.96196 L 1549.196049 322.23396 L 1543.532049 342.77796 Z M 1580.204049 301.49796 C 1582.316049 300.98596 1584.636049 300.61796 1587.164049 300.39396 C 1589.692049 300.16996 1592.012049 300.05796 1594.124049 300.05796 C 1596.620049 300.05796 1598.988049 300.36196 1601.228049 300.96996 C 1603.468049 301.57796 1605.420049 302.60196 1607.084049 304.04196 C 1608.748049 305.48196 1610.076049 307.36996 1611.068049 309.70596 C 1612.060049 312.04196 1612.556049 314.96996 1612.556049 318.48996 C 1612.556049 323.80196 1611.452049 328.05796 1609.244049 331.25796 C 1607.036049 334.45796 1604.108049 336.60196 1600.460049 337.68996 L 1604.108049 341.24196 L 1617.356049 368.02596 L 1609.004049 368.02596 L 1594.604049 338.74596 L 1587.404049 337.30596 L 1587.404049 368.02596 L 1580.204049 368.02596 L 1580.204049 301.49796 Z M 1587.404049 332.50596 L 1593.164049 332.50596 C 1596.812049 332.50596 1599.692049 331.38596 1601.804049 329.14596 C 1603.916049 326.90596 1604.972049 323.48196 1604.972049 318.87396 C 1604.972049 315.35396 1604.092049 312.44196 1602.332049 310.13796 C 1600.572049 307.83396 1597.964049 306.68196 1594.508049 306.68196 C 1593.228049 306.68196 1591.900049 306.72996 1590.524049 306.82596 C 1589.148049 306.92196 1588.108049 307.06596 1587.404049 307.25796 L 1587.404049 332.50596 Z M 1626.284049 300.82596 L 1656.140049 300.82596 L 1656.140049 307.44996 L 1633.484049 307.44996 L 1633.484049 330.20196 L 1654.316049 330.20196 L 1654.316049 336.82596 L 1633.484049 336.82596 L 1633.484049 361.40196 L 1656.620049 361.40196 L 1656.620049 368.02596 L 1626.284049 368.02596 L 1626.284049 300.82596 Z M 1668.908049 300.82596 L 1676.108049 300.82596 L 1676.108049 368.02596 L 1668.908049 368.02596 L 1668.908049 300.82596 Z M 1725.260049 307.44996 L 1708.748049 307.44996 L 1708.748049 368.02596 L 1701.548049 368.02596 L 1701.548049 307.44996 L 1685.036049 307.44996 L 1685.036049 300.82596 L 1725.260049 300.82596 L 1725.260049 307.44996 Z"/></svg>